# 3ds Max Wavefront OBJ Exporter v0.99 - (c)2007 guruware
# File Created: 25.06.2025 15:01:37

#
# object Object004
#

v  1164.4713 81.7549 1146.6860
v  1399.9227 81.7549 1146.6860
v  1399.9227 331.0125 1146.6860
v  1164.4713 331.0125 1146.6860
v  1399.9227 81.7549 1029.0391
v  1399.9227 331.0125 1029.0391
v  1399.9227 81.7549 911.3920
v  1399.9227 331.0125 911.3920
v  1399.9227 81.7549 793.7449
v  1399.9227 331.0125 793.7449
v  1164.4713 81.7549 793.7449
v  1164.4713 331.0125 793.7449
v  1164.4713 81.7549 911.3920
v  1164.4713 331.0125 911.3920
v  1164.4713 81.7549 1029.0391
v  1164.4713 331.0125 1029.0391
v  1152.2957 341.8310 1176.2490
v  1412.0984 341.8310 1176.2490
v  1416.3257 465.4539 970.2155
v  1148.0682 465.4539 970.2155
v  1399.9229 433.3965 970.2155
v  1412.0984 341.8310 764.1819
v  1152.2957 341.8310 764.1819
v  1164.4712 433.3965 970.2155
v  1412.0984 317.2347 1176.2490
v  1152.2957 317.2347 1176.2490
v  1416.3257 440.8576 970.2155
v  1412.0984 317.2347 764.1819
v  1152.2957 317.2347 764.1819
v  1148.0682 440.8576 970.2155
# 30 vertices

vn 0.0000 0.0000 1.0000
vn 1.0000 0.0000 -0.0000
vn 0.0000 0.0000 -1.0000
vn -1.0000 0.0000 -0.0000
vn 0.0000 0.8575 0.5145
vn 1.0000 -0.0000 -0.0000
vn 0.0000 0.8575 -0.5145
vn -1.0000 -0.0000 -0.0000
vn 0.0000 -0.9064 -0.4224
vn 0.3157 -0.8184 -0.4801
vn 0.3157 -0.8184 0.4801
vn 0.0000 -0.9064 0.4224
vn -0.3157 -0.8184 0.4801
vn -0.3157 -0.8184 -0.4801
vn 0.9998 0.0000 0.0205
vn 0.9998 0.0000 -0.0205
vn -0.9998 0.0000 -0.0205
vn -0.9998 0.0000 0.0205
# 18 vertex normals

vt 0.0211 0.8345 0.0000
vt 0.1194 0.8352 0.0000
vt 0.1186 0.9393 0.0000
vt 0.0203 0.9386 0.0000
vt 0.1685 0.8356 0.0000
vt 0.1677 0.9397 0.0000
vt 0.2177 0.8360 0.0000
vt 0.2169 0.9401 0.0000
vt 0.2668 0.8364 0.0000
vt 0.2660 0.9404 0.0000
vt 0.3651 0.8371 0.0000
vt 0.3643 0.9412 0.0000
vt 0.4142 0.8375 0.0000
vt 0.4134 0.9416 0.0000
vt 0.4634 0.8379 0.0000
vt 0.4626 0.9419 0.0000
vt 0.5125 0.8382 0.0000
vt 0.5117 0.9423 0.0000
vt 0.9506 0.7340 0.0000
vt 0.9456 0.9417 0.0000
vt 0.7569 0.9398 0.0000
vt 0.7620 0.7269 0.0000
vt 0.1920 0.9826 0.0000
vt 0.5682 0.9326 0.0000
vt 0.5732 0.7249 0.0000
vt 0.4377 0.9845 0.0000
vt 0.0314 0.6934 0.0000
vt 0.0378 0.7690 0.0000
vt 0.0273 0.7693 0.0000
vt 0.0207 0.6905 0.0000
vt 0.0957 0.7995 0.0000
vt 0.0958 0.8053 0.0000
vt 0.1536 0.7687 0.0000
vt 0.1643 0.7687 0.0000
vt 0.1596 0.6931 0.0000
vt 0.1701 0.6901 0.0000
vt 0.0955 0.6866 0.0000
vt 0.0955 0.6809 0.0000
vt 0.9702 0.7347 0.0000
vt 0.9652 0.9419 0.0000
vt 0.9540 0.9592 0.0000
vt 0.7565 0.9560 0.0000
vt 0.5590 0.9497 0.0000
vt 0.5486 0.9319 0.0000
vt 0.5536 0.7247 0.0000
vt 0.5648 0.7075 0.0000
vt 0.7624 0.7107 0.0000
vt 0.9598 0.7169 0.0000
# 48 texture coords

o Object004
g Object004
s off
f 1/1/1 2/2/1 3/3/1 4/4/1 
f 2/2/2 5/5/2 6/6/2 3/3/2 
f 5/5/2 7/7/2 8/8/2 6/6/2 
f 7/7/2 9/9/2 10/10/2 8/8/2 
f 9/9/3 11/11/3 12/12/3 10/10/3 
f 11/11/4 13/13/4 14/14/4 12/12/4 
f 13/13/4 15/15/4 16/16/4 14/14/4 
f 15/15/4 1/17/4 4/18/4 16/16/4 
f 17/19/5 18/20/5 19/21/5 20/22/5 
f 3/3/6 6/6/6 21/23/6 
f 6/6/6 8/8/6 21/23/6 
f 8/8/6 10/10/6 21/23/6 
f 22/24/7 23/25/7 20/22/7 19/21/7 
f 12/12/8 14/14/8 24/26/8 
f 14/14/8 16/16/8 24/26/8 
f 16/16/8 4/18/8 24/26/8 
f 4/27/9 3/28/9 25/29/9 26/30/9 
f 3/28/10 21/31/10 27/32/10 25/29/10 
f 21/31/11 10/33/11 28/34/11 27/32/11 
f 10/33/12 12/35/12 29/36/12 28/34/12 
f 12/35/13 24/37/13 30/38/13 29/36/13 
f 24/37/14 4/27/14 26/30/14 30/38/14 
f 26/39/1 25/40/1 18/20/1 17/19/1 
f 25/41/15 27/42/15 19/21/15 18/20/15 
f 27/42/16 28/43/16 22/24/16 19/21/16 
f 28/44/3 29/45/3 23/25/3 22/24/3 
f 29/46/17 30/47/17 20/22/17 23/25/17 
f 30/47/18 26/48/18 17/19/18 20/22/18 
# 22 polygons - 6 triangles

