# 3ds Max Wavefront OBJ Exporter v0.99 - (c)2007 guruware
# File Created: 25.06.2025 22:13:44

#
# object Object005
#

v  1345.6556 0.3710 61.9018
v  1345.6556 2.7126 64.9800
v  1345.6556 75.5257 27.8802
v  1345.6556 68.7924 27.8802
v  1345.6556 2.7126 -9.2194
v  1345.6556 0.3710 -6.1413
v  1391.5128 0.3710 61.9018
v  1391.5128 68.7924 27.8802
v  1391.5128 75.5257 27.8802
v  1391.5128 2.7125 64.9799
v  1391.5128 0.3710 -6.1413
v  1391.5128 2.7125 -9.2194
# 12 vertices

vn -1.0000 0.0000 -0.0000
vn 1.0000 0.0000 0.0000
vn 1.0000 0.0000 -0.0000
vn 0.0000 -0.4452 -0.8954
vn 0.0000 -0.4452 0.8954
vn -0.0000 -0.7959 -0.6054
vn 0.0000 0.4540 -0.8910
vn 0.0000 0.4540 0.8910
vn 0.0000 -0.7959 0.6054
# 9 vertex normals

vt 0.0173 0.0214 0.0000
vt 0.0216 0.0295 0.0000
vt 0.0233 0.1462 0.0000
vt 0.0174 0.1463 0.0000
vt 0.0247 0.2630 0.0000
vt 0.0207 0.2712 0.0000
vt 0.0915 0.0202 0.0000
vt 0.0964 0.1452 0.0000
vt 0.0904 0.1453 0.0000
vt 0.0876 0.0284 0.0000
vt 0.0949 0.2704 0.0000
vt 0.0907 0.2623 0.0000
vt 0.1127 0.2678 0.0000
vt 0.1123 0.1461 0.0000
vt 0.1854 0.1459 0.0000
vt 0.1857 0.2676 0.0000
vt 0.1119 0.0243 0.0000
vt 0.1850 0.0241 0.0000
# 18 texture coords

o Object005
g Object005
s 2
f 1/1/1 2/2/1 3/3/1 4/4/1 
f 4/4/1 3/3/1 5/5/1 6/6/1 
s 4
f 7/7/2 8/8/2 9/9/2 10/10/2 
f 8/8/3 11/11/3 12/12/3 9/9/3 
s 8
f 1/13/4 4/14/4 8/15/4 7/16/4 
f 4/14/5 6/17/5 11/18/5 8/15/5 
s 16
f 6/6/6 5/5/6 12/12/6 11/11/6 
s 32
f 5/5/7 3/3/7 9/9/7 12/12/7 
f 3/3/8 2/2/8 10/10/8 9/9/8 
s 64
f 2/2/9 1/1/9 7/7/9 10/10/9 
# 10 polygons

